<svg xmlns="http://www.w3.org/2000/svg" viewBox="0 0 800 360" font-family="Inter, system-ui, sans-serif">
  <rect width="800" height="360" rx="16" fill="#0f0f12"/>
  <!-- hero -->
  <rect x="40" y="40" width="90" height="90" rx="14" fill="#6c47ff"/>
  <text x="85" y="98" font-size="34" font-weight="800" fill="#fff" text-anchor="middle">ML</text>
  <text x="150" y="58" font-size="12" font-weight="700" fill="#8b6dff" letter-spacing="1">CANTAUTRICE DA NAPOLI</text>
  <text x="150" y="92" font-size="30" font-weight="800" fill="#f3f3f6">Marta Lo Russo</text>
  <text x="150" y="116" font-size="13" fill="#a0a0ad">Voce e chitarra, testi di quartiere e di sogni.</text>
  <!-- track rows -->
  <g>
    <rect x="40" y="160" width="720" height="56" rx="12" fill="#18181f"/>
    <rect x="52" y="172" width="32" height="32" rx="8" fill="#6c47ff"/>
    <text x="98" y="186" font-size="14" font-weight="700" fill="#f3f3f6">Quartiere</text>
    <text x="98" y="204" font-size="12" fill="#a0a0ad">Il primo singolo.</text>
    <text x="690" y="194" font-size="13" fill="#ff4d6d" text-anchor="end">♥ 128</text>
  </g>
  <g>
    <rect x="40" y="224" width="720" height="56" rx="12" fill="#18181f"/>
    <rect x="52" y="236" width="32" height="32" rx="8" fill="#8b6dff"/>
    <text x="98" y="250" font-size="14" font-weight="700" fill="#f3f3f6">Sogni a Forcella</text>
    <text x="98" y="268" font-size="12" fill="#a0a0ad">Andarsene o restare.</text>
    <text x="690" y="258" font-size="13" fill="#a0a0ad" text-anchor="end">♡ 74</text>
  </g>
  <!-- player bar -->
  <rect x="0" y="312" width="800" height="48" fill="#18181f"/>
  <circle cx="740" cy="336" r="16" fill="#6c47ff"/>
  <path d="M735 329l10 7-10 7z" fill="#fff"/>
  <text x="40" y="332" font-size="13" font-weight="700" fill="#f3f3f6">Quartiere</text>
  <text x="40" y="348" font-size="11" fill="#a0a0ad">Marta Lo Russo</text>
  <rect x="200" y="334" width="400" height="3" rx="1.5" fill="#20202a"/>
  <rect x="200" y="334" width="150" height="3" rx="1.5" fill="#6c47ff"/>
</svg>
